<svg width="4303" height="1260" viewBox="0 0 4303 1260" fill="none" xmlns="http://www.w3.org/2000/svg">
<path d="M876.685 1251.49C772.074 1251.49 690.774 1223.07 632.783 1166.21C575.93 1108.22 547.503 1026.92 547.503 922.313V512.973H387.177V313.415H404.233C449.715 313.415 484.965 301.476 509.98 277.597C534.996 253.719 547.503 219.038 547.503 173.555V101.92H770.937V313.415H984.138V512.973H770.937V910.373C770.937 941.073 776.054 967.233 786.288 988.833C797.658 1010.44 814.714 1026.92 837.456 1038.29C861.334 1049.66 891.467 1055.35 927.853 1055.35C935.812 1055.35 944.909 1054.78 955.142 1053.64C966.513 1052.51 977.315 1051.37 987.549 1050.23V1241.26C971.63 1243.53 953.437 1245.81 932.97 1248.08C912.502 1250.36 893.741 1251.49 876.685 1251.49ZM1409.87 1259.48C1321.82 1259.48 1244.91 1238.73 1179.13 1197.24C1114.36 1154.73 1069.84 1097.56 1045.55 1025.71L1194.31 954.363C1215.56 1000.91 1244.91 1037.34 1282.36 1063.66C1320.81 1089.97 1363.31 1103.12 1409.87 1103.12C1446.3 1103.12 1475.14 1095.03 1496.39 1078.84C1517.64 1062.64 1528.27 1041.39 1528.27 1015.08C1528.27 998.893 1523.72 985.733 1514.61 975.613C1506.51 964.483 1494.87 955.373 1479.69 948.293C1465.53 940.193 1449.84 933.613 1432.64 928.553L1297.54 890.613C1227.71 870.373 1174.58 839.503 1138.15 798.013C1102.73 756.523 1085.02 707.433 1085.02 650.763C1085.02 600.163 1097.67 556.143 1122.97 518.703C1149.28 480.243 1185.2 450.392 1230.74 429.14C1277.3 407.888 1330.43 397.262 1390.13 397.262C1468.06 397.262 1536.87 415.984 1596.58 453.428C1656.29 490.873 1698.79 543.493 1724.09 611.303L1572.29 682.643C1558.12 645.203 1534.34 615.343 1500.95 593.083C1467.55 570.823 1430.11 559.683 1388.61 559.683C1355.22 559.683 1328.91 567.273 1309.68 582.453C1290.45 597.633 1280.84 617.373 1280.84 641.663C1280.84 656.843 1284.89 669.993 1292.98 681.123C1301.08 692.253 1312.21 701.363 1326.38 708.453C1341.56 715.533 1358.76 722.113 1377.99 728.183L1510.05 767.653C1577.86 787.893 1629.97 818.253 1666.41 858.733C1703.85 899.213 1722.57 948.793 1722.57 1007.49C1722.57 1057.08 1709.42 1101.1 1683.1 1139.55C1656.79 1177 1620.36 1206.35 1573.81 1227.6C1527.26 1248.85 1472.61 1259.48 1409.87 1259.48ZM1787.35 1241.26V1028.74H1987.72V1241.26H1787.35Z" fill="#F97316"/>
<path d="M392.286 0H153.502V221.728H392.286V0Z" fill="#F97316"/>
<path d="M392.286 1253.62H153.502V315.541H392.286V1253.62Z" fill="#F97316"/>
<path d="M153.504 0H0V144.976H153.504V0Z" fill="#F97316"/>
<path d="M2244.28 513.772V253.692H2291.73V513.772H2244.28ZM2337.89 513.772V323.858H2380.8V361.216L2377.32 354.58C2381.73 343.185 2388.95 334.563 2398.94 328.75C2409.18 322.696 2421.04 319.668 2434.54 319.668C2448.49 319.668 2460.81 322.696 2471.51 328.75C2482.45 334.805 2490.93 343.294 2496.99 354.229C2503.04 364.946 2506.06 377.394 2506.06 391.587V513.772H2460.35V402.413C2460.35 394.033 2458.72 386.816 2455.46 380.761C2452.21 374.718 2447.67 370.056 2441.86 366.799C2436.28 363.311 2429.65 361.567 2421.98 361.567C2414.53 361.567 2407.9 363.311 2402.09 366.799C2396.27 370.056 2391.73 374.718 2388.48 380.761C2385.22 386.816 2383.6 394.033 2383.6 402.413V513.772H2337.89ZM2631.24 515.867C2609.83 515.867 2593.2 510.055 2581.34 498.417C2569.71 486.55 2563.9 469.899 2563.9 448.49V364.704H2531.1V323.858H2534.59C2543.89 323.858 2551.11 321.424 2556.21 316.532C2561.33 311.64 2563.9 304.545 2563.9 295.236V280.574H2609.6V323.858H2653.22V364.704H2609.6V446.044C2609.6 452.328 2610.65 457.681 2612.75 462.113C2615.07 466.533 2618.55 469.899 2623.2 472.237C2628.09 474.562 2634.25 475.724 2641.69 475.724C2643.33 475.724 2645.19 475.603 2647.29 475.373C2649.61 475.143 2651.81 474.913 2653.91 474.671V513.772C2650.65 514.245 2646.93 514.705 2642.75 515.177C2638.56 515.637 2634.72 515.867 2631.24 515.867ZM2777.14 517.962C2757.6 517.962 2740.51 513.542 2725.85 504.702C2711.2 495.85 2699.8 483.874 2691.66 468.737C2683.52 453.612 2679.45 436.852 2679.45 418.47C2679.45 399.385 2683.52 382.517 2691.66 367.852C2700.04 352.957 2711.32 341.199 2725.5 332.589C2739.93 323.979 2755.98 319.668 2773.66 319.668C2788.54 319.668 2801.57 322.114 2812.72 327.007C2824.13 331.887 2833.78 338.644 2841.69 347.254C2849.6 355.864 2855.64 365.757 2859.83 376.922C2864.01 387.869 2866.11 399.737 2866.11 412.536C2866.11 415.794 2865.88 419.172 2865.42 422.66C2865.18 426.148 2864.6 429.175 2863.66 431.73H2717.13V396.83H2837.85L2816.22 413.239C2818.32 402.522 2817.74 392.98 2814.48 384.612C2811.45 376.232 2806.33 369.596 2799.12 364.704C2792.14 359.823 2783.65 357.377 2773.66 357.377C2764.12 357.377 2755.63 359.823 2748.18 364.704C2740.74 369.366 2735.04 376.341 2731.08 385.653C2727.37 394.735 2725.98 405.791 2726.91 418.821C2725.98 430.459 2727.49 440.812 2731.43 449.894C2735.62 458.734 2741.67 465.6 2749.57 470.481C2757.72 475.373 2767.03 477.819 2777.49 477.819C2787.96 477.819 2796.8 475.603 2804.01 471.183C2811.45 466.763 2817.26 460.829 2821.45 453.382L2858.44 471.534C2854.71 480.604 2848.9 488.645 2841 495.62C2833.08 502.607 2823.67 508.069 2812.72 512.029C2802.03 515.988 2790.17 517.962 2777.14 517.962ZM2992.87 590.583C2978.67 590.583 2965.54 588.246 2953.44 583.596C2941.35 578.946 2930.88 572.419 2922.05 564.051C2913.44 555.901 2907.16 546.238 2903.2 535.073L2945.77 519.016C2948.56 527.856 2954.02 534.952 2962.17 540.304C2970.54 545.887 2980.77 548.684 2992.87 548.684C3002.18 548.684 3010.31 546.94 3017.29 543.453C3024.5 539.953 3030.08 534.843 3034.04 528.086C3037.99 521.571 3039.97 513.663 3039.97 504.351V461.059L3048.69 471.534C3042.17 482.941 3033.46 491.551 3022.52 497.364C3011.59 503.189 2999.15 506.095 2985.2 506.095C2967.51 506.095 2951.7 502.026 2937.74 493.876C2923.79 485.727 2912.85 474.562 2904.95 460.357C2897.04 446.165 2893.08 430.228 2893.08 412.536C2893.08 394.614 2897.04 378.666 2904.95 364.704C2912.85 350.741 2923.67 339.806 2937.39 331.887C2951.12 323.749 2966.7 319.668 2984.14 319.668C2998.34 319.668 3010.78 322.696 3021.48 328.75C3032.41 334.563 3041.48 343.064 3048.69 354.229L3042.42 365.757V323.858H3085.67V504.351C3085.67 520.869 3081.6 535.654 3073.46 548.684C3065.56 561.714 3054.63 571.959 3040.66 579.406C3026.94 586.854 3011.01 590.583 2992.87 590.583ZM2990.78 463.857C3000.54 463.857 3009.04 461.762 3016.24 457.572C3023.68 453.152 3029.5 447.097 3033.69 439.42C3037.88 431.73 3039.97 422.89 3039.97 412.888C3039.97 403.103 3037.76 394.384 3033.34 386.707C3029.15 378.787 3023.34 372.623 3015.9 368.203C3008.69 363.771 3000.31 361.567 2990.78 361.567C2981.24 361.567 2972.63 363.771 2964.96 368.203C2957.28 372.623 2951.24 378.787 2946.81 386.707C2942.63 394.384 2940.54 403.103 2940.54 412.888C2940.54 422.66 2942.63 431.391 2946.81 439.068C2951.24 446.746 2957.17 452.801 2964.61 457.221C2972.28 461.641 2981.01 463.857 2990.78 463.857ZM3128.36 513.772V323.858H3171.27V366.108L3167.78 359.823C3172.2 345.619 3179.06 335.738 3188.37 330.143C3197.91 324.56 3209.31 321.763 3222.56 321.763H3233.73V362.27H3217.33C3204.3 362.27 3193.84 366.338 3185.93 374.488C3178.02 382.396 3174.07 393.561 3174.07 407.995V513.772H3128.36ZM3316.43 517.962C3303.16 517.962 3291.65 515.758 3281.89 511.326C3272.12 506.906 3264.56 500.621 3259.21 492.484C3253.86 484.104 3251.18 474.44 3251.18 463.505C3251.18 453.031 3253.51 443.719 3258.15 435.581C3262.81 427.201 3270.03 420.214 3279.79 414.631C3289.56 409.049 3301.89 405.089 3316.78 402.764L3378.87 392.64V427.552L3325.49 436.622C3316.43 438.257 3309.67 441.163 3305.26 445.353C3300.84 449.543 3298.64 455.005 3298.64 461.762C3298.64 468.277 3301.07 473.508 3305.96 477.468C3311.08 481.198 3317.36 483.05 3324.8 483.05C3334.34 483.05 3342.71 481.076 3349.91 477.117C3357.36 472.927 3363.06 467.223 3367.01 460.018C3371.2 452.801 3373.3 444.881 3373.3 436.271V387.397C3373.3 379.259 3370.04 372.502 3363.53 367.15C3357.25 361.567 3348.87 358.77 3338.4 358.77C3328.64 358.77 3319.91 361.446 3312.24 366.799C3304.8 371.921 3299.33 378.787 3295.84 387.397L3258.5 369.245C3262.23 359.242 3268.04 350.632 3275.96 343.415C3284.09 335.968 3293.63 330.143 3304.57 325.953C3315.49 321.763 3327.35 319.668 3340.15 319.668C3355.73 319.668 3369.46 322.587 3381.32 328.399C3393.18 333.982 3402.37 341.901 3408.88 352.134C3415.63 362.148 3418.99 373.895 3418.99 387.397V513.772H3375.74V481.307L3385.51 480.604C3380.62 488.754 3374.81 495.62 3368.05 501.203C3361.31 506.555 3353.64 510.745 3345.04 513.772C3336.43 516.57 3326.89 517.962 3316.43 517.962ZM3544.36 515.867C3522.97 515.867 3506.34 510.055 3494.48 498.417C3482.85 486.55 3477.02 469.899 3477.02 448.49V364.704H3444.23V323.858H3447.71C3457.02 323.858 3464.23 321.424 3469.35 316.532C3474.47 311.64 3477.02 304.545 3477.02 295.236V280.574H3522.74V323.858H3566.34V364.704H3522.74V446.044C3522.74 452.328 3523.78 457.681 3525.87 462.113C3528.19 466.533 3531.69 469.899 3536.34 472.237C3541.23 474.562 3547.39 475.724 3554.83 475.724C3556.45 475.724 3558.32 475.603 3560.41 475.373C3562.73 475.143 3564.95 474.913 3567.04 474.671V513.772C3563.79 514.245 3560.06 514.705 3555.87 515.177C3551.68 515.637 3547.85 515.867 3544.36 515.867ZM3690.27 517.962C3670.74 517.962 3653.63 513.542 3638.99 504.702C3624.33 495.85 3612.93 483.874 3604.79 468.737C3596.66 453.612 3592.58 436.852 3592.58 418.47C3592.58 399.385 3596.66 382.517 3604.79 367.852C3613.16 352.957 3624.44 341.199 3638.64 332.589C3653.05 323.979 3669.1 319.668 3686.78 319.668C3701.67 319.668 3714.69 322.114 3725.86 327.007C3737.26 331.887 3746.91 338.644 3754.82 347.254C3762.73 355.864 3768.78 365.757 3772.96 376.922C3777.15 387.869 3779.25 399.737 3779.25 412.536C3779.25 415.794 3779.02 419.172 3778.54 422.66C3778.31 426.148 3777.73 429.175 3776.8 431.73H3630.27V396.83H3750.99L3729.35 413.239C3731.44 402.522 3730.86 392.98 3727.6 384.612C3724.58 376.232 3719.46 369.596 3712.26 364.704C3705.28 359.823 3696.79 357.377 3686.78 357.377C3677.25 357.377 3668.76 359.823 3661.32 364.704C3653.88 369.366 3648.18 376.341 3644.22 385.653C3640.49 394.735 3639.1 405.791 3640.03 418.821C3639.1 430.459 3640.61 440.812 3644.57 449.894C3648.76 458.734 3654.8 465.6 3662.71 470.481C3670.86 475.373 3680.15 477.819 3690.62 477.819C3701.09 477.819 3709.92 475.603 3717.14 471.183C3724.58 466.763 3730.4 460.829 3734.59 453.382L3771.56 471.534C3767.84 480.604 3762.04 488.645 3754.12 495.62C3746.22 502.607 3736.79 508.069 3725.86 512.029C3715.16 515.988 3703.3 517.962 3690.27 517.962ZM3902.16 517.962C3883.79 517.962 3867.39 513.663 3852.96 505.053C3838.55 496.201 3827.15 484.213 3818.77 469.088C3810.4 453.963 3806.21 437.204 3806.21 418.821C3806.21 400.197 3810.4 383.437 3818.77 368.542C3827.15 353.648 3838.55 341.78 3852.96 332.94C3867.62 324.1 3883.91 319.668 3901.81 319.668C3916.23 319.668 3929.02 322.587 3940.19 328.399C3951.58 333.982 3960.54 341.901 3967.05 352.134L3960.08 361.567V249.503H4005.78V513.772H3962.52V477.117L3967.4 486.199C3960.89 496.431 3951.83 504.351 3940.19 509.934C3928.56 515.286 3915.88 517.962 3902.16 517.962ZM3907.05 476.075C3917.52 476.075 3926.7 473.629 3934.6 468.737C3942.52 463.857 3948.68 457.1 3953.1 448.49C3957.76 439.88 3960.08 429.986 3960.08 418.821C3960.08 407.874 3957.76 398.102 3953.1 389.492C3948.68 380.652 3942.52 373.786 3934.6 368.893C3926.7 364.013 3917.52 361.567 3907.05 361.567C3896.81 361.567 3887.62 364.122 3879.48 369.245C3871.34 374.137 3864.94 380.882 3860.3 389.492C3855.88 397.872 3853.66 407.644 3853.66 418.821C3853.66 429.986 3855.88 439.88 3860.3 448.49C3864.94 457.1 3871.34 463.857 3879.48 468.737C3887.62 473.629 3896.81 476.075 3907.05 476.075ZM2290.34 880.692V662.502H2223V620.615H2404.43V662.502H2338.13V880.692H2290.34ZM2466.33 884.882C2453.07 884.882 2441.56 882.678 2431.79 878.246C2422.01 873.826 2414.46 867.541 2409.11 859.403C2403.76 851.024 2401.09 841.36 2401.09 830.425C2401.09 819.95 2403.41 810.638 2408.06 802.501C2412.72 794.121 2419.92 787.133 2429.7 781.551C2439.46 775.968 2451.78 772.009 2466.67 769.684L2528.78 759.56V794.472L2475.4 803.542C2466.33 805.177 2459.58 808.083 2455.16 812.273C2450.74 816.463 2448.53 821.924 2448.53 828.681C2448.53 835.196 2450.97 840.428 2455.86 844.387C2460.98 848.117 2467.26 849.97 2474.71 849.97C2484.24 849.97 2492.6 847.996 2499.82 844.036C2507.26 839.846 2512.96 834.143 2516.92 826.938C2521.11 819.72 2523.2 811.801 2523.2 803.191V754.317C2523.2 746.179 2519.94 739.422 2513.43 734.069C2507.15 728.487 2498.78 725.69 2488.31 725.69C2478.54 725.69 2469.82 728.366 2462.14 733.718C2454.7 738.841 2449.23 745.707 2445.74 754.317L2408.41 736.164C2412.14 726.162 2417.95 717.552 2425.85 710.335C2433.99 702.887 2443.53 697.063 2454.46 692.873C2465.4 688.683 2477.26 686.588 2490.05 686.588C2505.64 686.588 2519.36 689.506 2531.22 695.319C2543.08 700.901 2552.27 708.821 2558.78 719.054C2565.53 729.068 2568.9 740.814 2568.9 754.317V880.692H2525.64V848.226L2535.41 847.524C2530.52 855.674 2524.71 862.54 2517.96 868.122C2511.22 873.475 2503.55 877.665 2494.94 880.692C2486.32 883.489 2476.79 884.882 2466.33 884.882ZM2683.36 884.882C2663.13 884.882 2645.46 880.111 2630.33 870.568C2615.44 860.796 2605.22 847.645 2599.64 831.128L2633.83 814.719C2638.7 825.424 2645.46 833.804 2654.06 839.846C2662.9 845.901 2672.66 848.929 2683.36 848.929C2691.74 848.929 2698.37 847.064 2703.26 843.346C2708.14 839.616 2710.58 834.724 2710.58 828.681C2710.58 824.952 2709.54 821.924 2707.45 819.599C2705.58 817.044 2702.91 814.949 2699.42 813.314C2696.15 811.462 2692.56 809.948 2688.6 808.773L2657.55 800.054C2641.5 795.392 2629.29 788.296 2620.91 778.754C2612.77 769.211 2608.7 757.925 2608.7 744.895C2608.7 733.258 2611.61 723.134 2617.43 714.525C2623.47 705.672 2631.73 698.806 2642.2 693.926C2652.9 689.034 2665.11 686.588 2678.84 686.588C2696.75 686.588 2712.55 690.899 2726.28 699.509C2740 708.119 2749.78 720.228 2755.59 735.813L2720.7 752.222C2717.44 743.612 2711.97 736.746 2704.3 731.623C2696.63 726.501 2688.02 723.946 2678.49 723.946C2670.81 723.946 2664.76 725.69 2660.34 729.189C2655.93 732.677 2653.71 737.218 2653.71 742.8C2653.71 746.288 2654.64 749.315 2656.51 751.87C2658.36 754.438 2660.92 756.533 2664.18 758.155C2667.67 759.79 2671.62 761.304 2676.04 762.696L2706.39 771.779C2721.98 776.429 2733.96 783.416 2742.34 792.716C2750.94 802.028 2755.24 813.435 2755.24 826.938C2755.24 838.333 2752.21 848.456 2746.17 857.308C2740.12 865.918 2731.75 872.663 2721.05 877.556C2710.35 882.436 2697.79 884.882 2683.36 884.882ZM2790.36 880.692V616.425H2836.07V789.58L2818.63 784.336L2907.95 690.778H2964.82L2894.68 767.238L2966.21 880.692H2913.88L2851.77 782.241L2878.99 776.659L2821.77 838.103L2836.07 810.178V880.692H2790.36ZM3150.38 884.882C3133.87 884.882 3118.52 881.855 3104.33 875.812C3090.38 869.757 3078.28 861.377 3068.05 850.672C3058.04 839.737 3050.72 827.047 3046.07 812.624L3085.49 795.513C3091.77 810.408 3100.85 822.166 3112.71 830.776C3124.57 839.156 3137.94 843.346 3152.83 843.346C3161.2 843.346 3168.41 842.062 3174.46 839.495C3180.75 836.71 3185.51 832.98 3188.77 828.33C3192.26 823.68 3194 818.086 3194 811.571C3194 803.893 3191.67 797.608 3187.02 792.716C3182.6 787.606 3175.86 783.646 3166.78 780.849L3116.89 764.791C3096.66 758.507 3081.42 749.085 3071.18 736.516C3060.96 723.946 3055.84 709.172 3055.84 692.183C3055.84 677.288 3059.44 664.137 3066.65 652.729C3074.1 641.322 3084.33 632.482 3097.35 626.198C3110.61 619.683 3125.73 616.425 3142.71 616.425C3158.3 616.425 3172.6 619.21 3185.62 624.805C3198.65 630.157 3209.82 637.714 3219.12 647.498C3228.66 657.041 3235.75 668.327 3240.4 681.356L3201.32 698.806C3196.21 685.777 3188.53 675.774 3178.3 668.787C3168.06 661.569 3156.2 657.961 3142.71 657.961C3134.81 657.961 3127.82 659.366 3121.77 662.151C3115.73 664.718 3110.96 668.436 3107.47 673.328C3104.21 677.978 3102.59 683.572 3102.59 690.087C3102.59 697.293 3104.91 703.699 3109.56 709.281C3114.22 714.634 3121.31 718.824 3130.85 721.851L3178.65 736.867C3199.35 743.612 3214.81 752.924 3225.05 764.791C3235.52 776.659 3240.75 791.323 3240.75 808.773C3240.75 823.68 3236.91 836.819 3229.24 848.226C3221.57 859.633 3210.98 868.594 3197.48 875.109C3184 881.624 3168.29 884.882 3150.38 884.882ZM3302.67 957.503C3297.55 957.503 3292.55 957.031 3287.66 956.098C3282.78 955.408 3278.36 954.003 3274.41 951.908V913.86C3277.43 914.562 3281.04 915.253 3285.23 915.955C3289.64 916.657 3293.71 916.996 3297.44 916.996C3307.91 916.996 3315.46 914.562 3320.12 909.67C3324.99 905.02 3329.3 898.735 3333.02 890.816L3345.58 861.498L3344.88 899.898L3262.2 690.778H3311.39L3369.3 845.09H3351.86L3409.43 690.778H3458.97L3376.28 899.898C3371.39 911.995 3365.46 922.349 3358.49 930.971C3351.51 939.581 3343.37 946.096 3334.07 950.516C3324.99 955.166 3314.53 957.503 3302.67 957.503ZM3556.3 884.882C3536.06 884.882 3518.38 880.111 3503.26 870.568C3488.38 860.796 3478.14 847.645 3472.56 831.128L3506.75 814.719C3511.64 825.424 3518.38 833.804 3526.98 839.846C3535.83 845.901 3545.6 848.929 3556.3 848.929C3564.67 848.929 3571.3 847.064 3576.18 843.346C3581.07 839.616 3583.51 834.724 3583.51 828.681C3583.51 824.952 3582.46 821.924 3580.37 819.599C3578.5 817.044 3575.83 814.949 3572.34 813.314C3569.09 811.462 3565.48 809.948 3561.52 808.773L3530.48 800.054C3514.42 795.392 3502.21 788.296 3493.85 778.754C3485.7 769.211 3481.62 757.925 3481.62 744.895C3481.62 733.258 3484.54 723.134 3490.35 714.525C3496.4 705.672 3504.65 698.806 3515.12 693.926C3525.82 689.034 3538.03 686.588 3551.76 686.588C3569.67 686.588 3585.49 690.899 3599.21 699.509C3612.93 708.119 3622.7 720.228 3628.51 735.813L3593.63 752.222C3590.36 743.612 3584.91 736.746 3577.23 731.623C3569.55 726.501 3560.94 723.946 3551.41 723.946C3543.73 723.946 3537.68 725.69 3533.26 729.189C3528.85 732.677 3526.63 737.218 3526.63 742.8C3526.63 746.288 3527.56 749.315 3529.43 751.87C3531.29 754.438 3533.85 756.533 3537.1 758.155C3540.6 759.79 3544.54 761.304 3548.96 762.696L3579.33 771.779C3594.9 776.429 3606.88 783.416 3615.26 792.716C3623.86 802.028 3628.17 813.435 3628.17 826.938C3628.17 838.333 3625.15 848.456 3619.09 857.308C3613.04 865.918 3604.67 872.663 3593.97 877.556C3583.27 882.436 3570.71 884.882 3556.3 884.882ZM3749.81 882.787C3728.42 882.787 3711.79 876.974 3699.93 865.337C3688.3 853.47 3682.47 836.819 3682.47 815.409V731.623H3649.69V690.778H3653.17C3662.48 690.778 3669.68 688.344 3674.8 683.451C3679.92 678.559 3682.47 671.463 3682.47 662.151V647.498H3728.19V690.778H3771.8V731.623H3728.19V812.963C3728.19 819.248 3729.24 824.601 3731.32 829.033C3733.66 833.453 3737.14 836.819 3741.79 839.156C3746.68 841.481 3752.84 842.644 3760.28 842.644C3761.91 842.644 3763.78 842.523 3765.87 842.293C3768.2 842.062 3770.4 841.832 3772.49 841.59V880.692C3769.24 881.164 3765.52 881.624 3761.33 882.097C3757.15 882.557 3753.31 882.787 3749.81 882.787ZM3895.73 884.882C3876.19 884.882 3859.1 880.462 3844.44 871.622C3829.78 862.77 3818.38 850.793 3810.25 835.657C3802.11 820.532 3798.04 803.772 3798.04 785.39C3798.04 766.305 3802.11 749.436 3810.25 734.772C3818.63 719.877 3829.91 708.119 3844.09 699.509C3858.52 690.899 3874.56 686.588 3892.23 686.588C3907.12 686.588 3920.15 689.034 3931.31 693.926C3942.71 698.806 3952.37 705.563 3960.27 714.173C3968.19 722.783 3974.23 732.677 3978.41 743.842C3982.6 754.789 3984.7 766.656 3984.7 779.456C3984.7 782.714 3984.47 786.092 3983.99 789.58C3983.76 793.067 3983.18 796.095 3982.25 798.65H3835.72V763.75H3956.44L3934.81 780.158C3936.9 769.441 3936.31 759.899 3933.05 751.531C3930.04 743.152 3924.92 736.516 3917.71 731.623C3910.73 726.743 3902.24 724.297 3892.23 724.297C3882.7 724.297 3874.21 726.743 3866.77 731.623C3859.33 736.285 3853.63 743.261 3849.67 752.573C3845.95 761.655 3844.56 772.711 3845.48 785.741C3844.56 797.378 3846.06 807.732 3850.02 816.814C3854.21 825.654 3860.26 832.52 3868.16 837.4C3876.31 842.293 3885.61 844.739 3896.08 844.739C3906.54 844.739 3915.39 842.523 3922.6 838.103C3930.04 833.683 3935.85 827.749 3940.04 820.302L3977.02 838.454C3973.3 847.524 3967.49 855.565 3959.57 862.54C3951.67 869.527 3942.25 874.988 3931.31 878.948C3920.61 882.908 3908.75 884.882 3895.73 884.882ZM4019.34 880.692V690.778H4062.26V734.772L4057.37 727.433C4060.87 713.701 4067.84 703.469 4078.31 696.711C4088.78 689.966 4101.1 686.588 4115.29 686.588C4130.88 686.588 4144.59 690.669 4156.46 698.806C4168.32 706.956 4176 717.661 4179.48 730.933L4166.58 731.975C4172.39 716.85 4181.12 705.563 4192.75 698.116C4204.38 690.439 4217.75 686.588 4232.87 686.588C4246.36 686.588 4258.34 689.615 4268.81 695.67C4279.51 701.725 4287.88 710.214 4293.92 721.148C4299.97 731.865 4303 744.314 4303 758.506V880.692H4257.29V769.332C4257.29 760.953 4255.78 753.735 4252.75 747.681C4249.74 741.638 4245.55 736.976 4240.2 733.718C4234.85 730.231 4228.33 728.487 4220.66 728.487C4213.44 728.487 4207.05 730.231 4201.47 733.718C4195.88 736.976 4191.59 741.638 4188.56 747.681C4185.53 753.735 4184.02 760.953 4184.02 769.332V880.692H4138.32V769.332C4138.32 760.953 4136.81 753.735 4133.78 747.681C4130.76 741.638 4126.45 736.976 4120.87 733.718C4115.52 730.231 4109.13 728.487 4101.69 728.487C4094.48 728.487 4088.07 730.231 4082.49 733.718C4076.92 736.976 4072.61 741.638 4069.58 747.681C4066.56 753.735 4065.06 760.953 4065.06 769.332V880.692H4019.34Z" fill="#0D1117"/>
<path d="M2313.98 1213.37V1081.97H2273V1063.91H2374.43V1081.97H2334.06V1213.37H2313.98ZM2427.41 1215.79C2416.86 1215.79 2407.46 1213.31 2399.22 1208.36C2390.96 1203.41 2384.47 1196.66 2379.73 1188.1C2375 1179.4 2372.63 1169.7 2372.63 1159.01C2372.63 1148.17 2374.93 1138.54 2379.54 1130.12C2384.27 1121.69 2390.63 1115.08 2398.6 1110.26C2406.71 1105.3 2415.77 1102.83 2425.79 1102.83C2433.9 1102.83 2441.06 1104.3 2447.29 1107.24C2453.64 1110.05 2458.99 1113.94 2463.31 1118.88C2467.78 1123.7 2471.15 1129.25 2473.46 1135.53C2475.89 1141.69 2477.1 1148.11 2477.1 1154.8C2477.1 1156.27 2476.97 1157.93 2476.7 1159.81C2476.57 1161.55 2476.36 1163.22 2476.1 1164.82H2386.43V1148.77H2465.14L2456.22 1156C2457.43 1149.05 2456.76 1142.83 2454.18 1137.34C2451.62 1131.86 2447.83 1127.52 2442.83 1124.3C2437.82 1121.09 2432.14 1119.49 2425.79 1119.49C2419.42 1119.49 2413.61 1121.09 2408.33 1124.3C2403.06 1127.52 2398.94 1132.12 2395.96 1138.15C2393.12 1144.03 2391.97 1151.06 2392.52 1159.21C2391.97 1167.1 2393.19 1174.06 2396.17 1180.07C2399.28 1185.96 2403.61 1190.58 2409.14 1193.91C2414.83 1197.13 2420.99 1198.73 2427.61 1198.73C2434.92 1198.73 2441.06 1197.06 2446.07 1193.72C2451.08 1190.37 2455.13 1186.09 2458.25 1180.88L2474.07 1188.9C2471.9 1193.85 2468.52 1198.4 2463.92 1202.55C2459.46 1206.56 2454.12 1209.77 2447.89 1212.18C2441.81 1214.58 2434.98 1215.79 2427.41 1215.79ZM2501.7 1253.5V1105.24H2520.17V1128.51L2517.73 1123.9C2521.79 1117.48 2527.33 1112.4 2534.37 1108.65C2541.4 1104.78 2549.45 1102.83 2558.51 1102.83C2568.79 1102.83 2577.98 1105.3 2586.1 1110.26C2594.34 1115.21 2600.84 1121.95 2605.57 1130.52C2610.31 1138.95 2612.67 1148.58 2612.67 1159.4C2612.67 1169.98 2610.31 1179.54 2605.57 1188.1C2600.84 1196.66 2594.34 1203.41 2586.1 1208.36C2577.98 1213.31 2568.72 1215.79 2558.3 1215.79C2549.51 1215.79 2541.47 1213.85 2534.16 1209.96C2526.99 1206.09 2521.45 1200.61 2517.53 1193.52L2520.57 1190.31V1253.5H2501.7ZM2556.89 1197.73C2563.78 1197.73 2569.94 1196.05 2575.34 1192.72C2580.75 1189.37 2584.95 1184.82 2587.92 1179.07C2591.03 1173.18 2592.59 1166.63 2592.59 1159.4C2592.59 1151.92 2591.03 1145.36 2587.92 1139.75C2584.95 1134 2580.75 1129.45 2575.34 1126.1C2569.94 1122.62 2563.78 1120.89 2556.89 1120.89C2549.98 1120.89 2543.77 1122.56 2538.23 1125.9C2532.81 1129.25 2528.48 1133.87 2525.24 1139.75C2522.13 1145.51 2520.57 1152.05 2520.57 1159.4C2520.57 1166.63 2522.13 1173.18 2525.24 1179.07C2528.48 1184.82 2532.81 1189.37 2538.23 1192.72C2543.77 1196.05 2549.98 1197.73 2556.89 1197.73ZM2669.46 1215.79C2662.29 1215.79 2655.94 1214.51 2650.39 1211.97C2644.98 1209.29 2640.73 1205.68 2637.61 1201.14C2634.5 1196.46 2632.95 1191.11 2632.95 1185.09C2632.95 1179.34 2634.16 1174.19 2636.6 1169.64C2639.17 1164.97 2643.08 1161.02 2648.36 1157.8C2653.78 1154.6 2660.54 1152.32 2668.65 1150.98L2709.22 1144.36V1160.01L2672.91 1166.03C2665.87 1167.24 2660.74 1169.44 2657.49 1172.65C2654.38 1175.86 2652.82 1179.81 2652.82 1184.49C2652.82 1188.9 2654.59 1192.58 2658.1 1195.53C2661.75 1198.47 2666.28 1199.94 2671.69 1199.94C2678.59 1199.94 2684.54 1198.53 2689.54 1195.72C2694.68 1192.78 2698.67 1188.84 2701.51 1183.89C2704.49 1178.94 2705.97 1173.46 2705.97 1167.43V1139.94C2705.97 1134.06 2703.74 1129.31 2699.27 1125.71C2694.96 1121.95 2689.2 1120.09 2682.04 1120.09C2675.81 1120.09 2670.27 1121.69 2665.4 1124.9C2660.67 1127.98 2657.15 1132.12 2654.85 1137.34L2638.43 1128.92C2640.45 1123.96 2643.7 1119.55 2648.16 1115.67C2652.63 1111.66 2657.83 1108.52 2663.78 1106.25C2669.73 1103.96 2675.96 1102.83 2682.44 1102.83C2690.83 1102.83 2698.2 1104.44 2704.56 1107.65C2710.91 1110.72 2715.84 1115.08 2719.36 1120.69C2723.01 1126.18 2724.84 1132.59 2724.84 1139.94V1213.37H2706.39V1192.92L2709.83 1194.12C2707.53 1198.4 2704.41 1202.14 2700.5 1205.36C2696.58 1208.56 2691.98 1211.1 2686.71 1212.98C2681.42 1214.84 2675.68 1215.79 2669.46 1215.79ZM2796.54 1214.58C2785.86 1214.58 2777.61 1211.57 2771.79 1205.55C2766.11 1199.53 2763.26 1191.04 2763.26 1180.07V1123.1H2743.38V1105.24H2747.44C2752.31 1105.24 2756.16 1103.77 2759.01 1100.83C2761.85 1097.89 2763.26 1094 2763.26 1089.19V1080.37H2782.13V1105.24H2806.68V1123.1H2782.13V1179.48C2782.13 1183.09 2782.68 1186.22 2783.75 1188.9C2784.97 1191.58 2786.93 1193.72 2789.64 1195.32C2792.34 1196.8 2795.93 1197.52 2800.39 1197.52C2801.34 1197.52 2802.49 1197.47 2803.84 1197.33C2805.33 1197.19 2806.68 1197.06 2807.89 1196.93V1213.37C2806.14 1213.78 2804.18 1214.04 2802.01 1214.19C2799.85 1214.45 2798.02 1214.58 2796.54 1214.58ZM2917.31 1215.79C2907.03 1215.79 2897.76 1213.31 2889.52 1208.36C2881.4 1203.41 2874.98 1196.66 2870.24 1188.1C2865.51 1179.54 2863.14 1169.98 2863.14 1159.4C2863.14 1148.58 2865.51 1138.95 2870.24 1130.52C2874.98 1121.95 2881.4 1115.21 2889.52 1110.26C2897.76 1105.3 2907.03 1102.83 2917.31 1102.83C2926.37 1102.83 2934.41 1104.78 2941.45 1108.65C2948.48 1112.4 2954.03 1117.48 2958.08 1123.9L2955.03 1128.51V1061.5H2974.1V1213.37H2955.65V1190.31L2958.08 1193.52C2954.29 1200.61 2948.75 1206.09 2941.45 1209.96C2934.28 1213.85 2926.23 1215.79 2917.31 1215.79ZM2918.93 1197.73C2925.82 1197.73 2931.98 1196.05 2937.39 1192.72C2942.8 1189.37 2947.06 1184.82 2950.17 1179.07C2953.41 1173.18 2955.03 1166.63 2955.03 1159.4C2955.03 1152.05 2953.41 1145.51 2950.17 1139.75C2947.06 1133.87 2942.8 1129.25 2937.39 1125.9C2931.98 1122.56 2925.82 1120.89 2918.93 1120.89C2912.17 1120.89 2906.01 1122.62 2900.47 1126.1C2895.06 1129.45 2890.8 1134 2887.69 1139.75C2884.58 1145.36 2883.02 1151.92 2883.02 1159.4C2883.02 1166.63 2884.58 1173.18 2887.69 1179.07C2890.8 1184.82 2895.06 1189.37 2900.47 1192.72C2905.88 1196.05 2912.04 1197.73 2918.93 1197.73ZM3035.36 1215.79C3028.19 1215.79 3021.84 1214.51 3016.29 1211.97C3010.88 1209.29 3006.62 1205.68 3003.5 1201.14C3000.4 1196.46 2998.85 1191.11 2998.85 1185.09C2998.85 1179.34 3000.06 1174.19 3002.49 1169.64C3005.06 1164.97 3008.98 1161.02 3014.26 1157.8C3019.67 1154.6 3026.44 1152.32 3034.55 1150.98L3075.11 1144.36V1160.01L3038.81 1166.03C3031.77 1167.24 3026.63 1169.44 3023.39 1172.65C3020.28 1175.86 3018.72 1179.81 3018.72 1184.49C3018.72 1188.9 3020.48 1192.58 3023.99 1195.53C3027.64 1198.47 3032.18 1199.94 3037.59 1199.94C3044.49 1199.94 3050.44 1198.53 3055.44 1195.72C3060.58 1192.78 3064.57 1188.84 3067.41 1183.89C3070.39 1178.94 3071.87 1173.46 3071.87 1167.43V1139.94C3071.87 1134.06 3069.64 1129.31 3065.17 1125.71C3060.86 1121.95 3055.1 1120.09 3047.94 1120.09C3041.71 1120.09 3036.17 1121.69 3031.3 1124.9C3026.57 1127.98 3023.05 1132.12 3020.75 1137.34L3004.31 1128.92C3006.35 1123.96 3009.6 1119.55 3014.06 1115.67C3018.53 1111.66 3023.73 1108.52 3029.68 1106.25C3035.63 1103.96 3041.84 1102.83 3048.34 1102.83C3056.73 1102.83 3064.1 1104.44 3070.45 1107.65C3076.81 1110.72 3081.74 1115.08 3085.26 1120.69C3088.91 1126.18 3090.74 1132.59 3090.74 1139.94V1213.37H3072.27V1192.92L3075.73 1194.12C3073.43 1198.4 3070.31 1202.14 3066.39 1205.36C3062.48 1208.56 3057.88 1211.1 3052.59 1212.98C3047.32 1214.84 3041.58 1215.79 3035.36 1215.79ZM3119.98 1213.37V1105.24H3138.45V1126.31L3135.4 1124.5C3138.11 1117.68 3142.44 1112.4 3148.39 1108.65C3154.48 1104.78 3161.58 1102.83 3169.69 1102.83C3177.53 1102.83 3184.49 1104.57 3190.58 1108.06C3196.81 1111.52 3201.67 1116.34 3205.19 1122.49C3208.84 1128.65 3210.67 1135.6 3210.67 1143.36V1213.37H3191.59V1149.38C3191.59 1143.36 3190.52 1138.28 3188.35 1134.13C3186.19 1129.98 3183.08 1126.77 3179.02 1124.5C3175.1 1122.1 3170.57 1120.89 3165.43 1120.89C3160.29 1120.89 3155.69 1122.1 3151.63 1124.5C3147.72 1126.77 3144.61 1130.05 3142.3 1134.33C3140 1138.47 3138.85 1143.5 3138.85 1149.38V1213.37H3119.98ZM3301.33 1213.37V1081.97H3260.35V1063.91H3361.78V1081.97H3321.41V1213.37H3301.33ZM3414.76 1215.79C3404.21 1215.79 3394.81 1213.31 3386.57 1208.36C3378.32 1203.41 3371.82 1196.66 3367.08 1188.1C3362.35 1179.4 3359.98 1169.7 3359.98 1159.01C3359.98 1148.17 3362.28 1138.54 3366.89 1130.12C3371.62 1121.69 3377.98 1115.08 3385.95 1110.26C3394.06 1105.3 3403.12 1102.83 3413.14 1102.83C3421.25 1102.83 3428.42 1104.3 3434.64 1107.24C3440.99 1110.05 3446.34 1113.94 3450.67 1118.88C3455.13 1123.7 3458.51 1129.25 3460.81 1135.53C3463.24 1141.69 3464.46 1148.11 3464.46 1154.8C3464.46 1156.27 3464.32 1157.93 3464.05 1159.81C3463.92 1161.55 3463.71 1163.22 3463.45 1164.82H3373.78V1148.77H3452.49L3443.57 1156C3444.79 1149.05 3444.11 1142.83 3441.53 1137.34C3438.97 1131.86 3435.18 1127.52 3430.18 1124.3C3425.17 1121.09 3419.49 1119.49 3413.14 1119.49C3406.78 1119.49 3400.97 1121.09 3395.68 1124.3C3390.41 1127.52 3386.29 1132.12 3383.31 1138.15C3380.47 1144.03 3379.32 1151.06 3379.87 1159.21C3379.32 1167.1 3380.54 1174.06 3383.52 1180.07C3386.63 1185.96 3390.96 1190.58 3396.51 1193.91C3402.18 1197.13 3408.34 1198.73 3414.96 1198.73C3422.27 1198.73 3428.42 1197.06 3433.42 1193.72C3438.43 1190.37 3442.48 1186.09 3445.6 1180.88L3461.42 1188.9C3459.25 1193.85 3455.87 1198.4 3451.27 1202.55C3446.81 1206.56 3441.47 1209.77 3435.24 1212.18C3429.16 1214.58 3422.33 1215.79 3414.76 1215.79ZM3489.05 1213.37V1105.24H3507.52V1125.1L3505.49 1122.29C3508.05 1116.14 3511.98 1111.6 3517.26 1108.65C3522.53 1105.58 3528.95 1104.04 3536.52 1104.04H3543.22V1121.69H3533.69C3525.98 1121.69 3519.76 1124.1 3515.02 1128.92C3510.29 1133.59 3507.92 1140.28 3507.92 1148.97V1213.37H3489.05ZM3599.13 1215.79C3588.18 1215.79 3578.65 1213.11 3570.53 1207.76C3562.42 1202.42 3556.67 1195.19 3553.28 1186.09L3568.29 1178.87C3571.4 1185.29 3575.67 1190.37 3581.08 1194.12C3586.48 1197.86 3592.51 1199.74 3599.13 1199.74C3605.08 1199.74 3610.02 1198.33 3613.94 1195.53C3617.86 1192.72 3619.83 1189.03 3619.83 1184.49C3619.83 1181.28 3618.87 1178.73 3616.99 1176.87C3615.22 1174.86 3613.05 1173.32 3610.49 1172.25C3607.93 1171.04 3605.56 1170.18 3603.39 1169.64L3586.96 1165.03C3577.09 1162.22 3569.85 1158.21 3565.26 1152.99C3560.8 1147.78 3558.56 1141.69 3558.56 1134.73C3558.56 1128.32 3560.18 1122.77 3563.43 1118.08C3566.81 1113.27 3571.34 1109.53 3577.01 1106.85C3582.83 1104.17 3589.33 1102.83 3596.5 1102.83C3606.1 1102.83 3614.69 1105.24 3622.26 1110.05C3629.96 1114.87 3635.44 1121.63 3638.68 1130.32L3623.27 1137.34C3620.83 1131.73 3617.18 1127.31 3612.32 1124.1C3607.44 1120.76 3601.98 1119.08 3595.88 1119.08C3590.34 1119.08 3585.94 1120.48 3582.7 1123.29C3579.46 1125.97 3577.84 1129.38 3577.84 1133.53C3577.84 1136.61 3578.65 1139.14 3580.27 1141.15C3581.89 1143.03 3583.85 1144.5 3586.14 1145.57C3588.44 1146.5 3590.68 1147.3 3592.84 1147.97L3610.7 1153.18C3619.62 1155.73 3626.52 1159.68 3631.39 1165.03C3636.38 1170.37 3638.89 1176.8 3638.89 1184.28C3638.89 1190.31 3637.19 1195.72 3633.82 1200.54C3630.43 1205.36 3625.78 1209.1 3619.83 1211.77C3613.88 1214.45 3606.97 1215.79 3599.13 1215.79ZM3708.02 1214.58C3697.33 1214.58 3689.08 1211.57 3683.26 1205.55C3677.59 1199.53 3674.75 1191.04 3674.75 1180.07V1123.1H3654.86V1105.24H3658.92C3663.79 1105.24 3667.65 1103.77 3670.49 1100.83C3673.32 1097.89 3674.75 1094 3674.75 1089.19V1080.37H3693.61V1105.24H3718.15V1123.1H3693.61V1179.48C3693.61 1183.09 3694.15 1186.22 3695.23 1188.9C3696.44 1191.58 3698.42 1193.72 3701.11 1195.32C3703.82 1196.8 3707.4 1197.52 3711.86 1197.52C3712.82 1197.52 3713.97 1197.47 3715.31 1197.33C3716.8 1197.19 3718.15 1197.06 3719.37 1196.93V1213.37C3717.61 1213.78 3715.65 1214.04 3713.48 1214.19C3711.33 1214.45 3709.51 1214.58 3708.02 1214.58ZM3744.02 1213.37V1105.24H3762.48V1125.1L3760.45 1122.29C3763.02 1116.14 3766.94 1111.6 3772.21 1108.65C3777.49 1105.58 3783.91 1104.04 3791.48 1104.04H3798.18V1121.69H3788.65C3780.93 1121.69 3774.72 1124.1 3769.98 1128.92C3765.25 1133.59 3762.88 1140.28 3762.88 1148.97V1213.37H3744.02ZM3853.68 1215.79C3845.84 1215.79 3838.75 1213.98 3832.38 1210.37C3826.17 1206.76 3821.29 1201.75 3817.77 1195.32C3814.4 1188.77 3812.71 1181.28 3812.71 1172.85V1105.24H3831.57V1170.85C3831.57 1176.2 3832.65 1180.87 3834.81 1184.89C3837.11 1188.9 3840.23 1192.05 3844.15 1194.32C3848.2 1196.59 3852.81 1197.73 3857.94 1197.73C3863.08 1197.73 3867.61 1196.59 3871.53 1194.32C3875.6 1192.05 3878.7 1188.77 3880.87 1184.49C3883.17 1180.21 3884.32 1175.12 3884.32 1169.24V1105.24H3903.39V1213.37H3884.92V1192.31L3887.97 1194.12C3885.39 1200.93 3881 1206.29 3874.79 1210.17C3868.69 1213.91 3861.66 1215.79 3853.68 1215.79ZM3932.61 1213.37V1061.5H3951.48V1165.62L3943.77 1163.82L4001.79 1105.24H4025.93L3983.94 1148.77L4028.77 1213.37H4006.46L3965.48 1154.8L3977.24 1154.19L3945.39 1187.09L3951.48 1173.46V1213.37H3932.61ZM4090.16 1214.58C4079.47 1214.58 4071.22 1211.57 4065.4 1205.55C4059.73 1199.53 4056.89 1191.04 4056.89 1180.07V1123.1H4037.01V1105.24H4041.07C4045.93 1105.24 4049.79 1103.77 4052.63 1100.83C4055.46 1097.89 4056.89 1094 4056.89 1089.19V1080.37H4075.76V1105.24H4100.3V1123.1H4075.76V1179.48C4075.76 1183.09 4076.29 1186.22 4077.38 1188.9C4078.6 1191.58 4080.56 1193.72 4083.25 1195.32C4085.96 1196.8 4089.54 1197.52 4094.01 1197.52C4094.96 1197.52 4096.11 1197.47 4097.45 1197.33C4098.94 1197.19 4100.3 1197.06 4101.52 1196.93V1213.37C4099.76 1213.78 4097.79 1214.04 4095.63 1214.19C4093.47 1214.45 4091.65 1214.58 4090.16 1214.58ZM4164.9 1215.79C4157.07 1215.79 4149.97 1213.98 4143.6 1210.37C4137.39 1206.76 4132.51 1201.75 4128.99 1195.32C4125.62 1188.77 4123.93 1181.28 4123.93 1172.85V1105.24H4142.79V1170.85C4142.79 1176.2 4143.87 1180.87 4146.04 1184.89C4148.33 1188.9 4151.45 1192.05 4155.37 1194.32C4159.42 1196.59 4164.03 1197.73 4169.16 1197.73C4174.3 1197.73 4178.84 1196.59 4182.75 1194.32C4186.82 1192.05 4189.93 1188.77 4192.09 1184.49C4194.39 1180.21 4195.54 1175.12 4195.54 1169.24V1105.24H4214.61V1213.37H4196.14V1192.31L4199.19 1194.12C4196.61 1200.93 4192.22 1206.29 4186.01 1210.17C4179.91 1213.91 4172.88 1215.79 4164.9 1215.79ZM4243.83 1213.37V1105.24H4262.3V1125.1L4260.27 1122.29C4262.83 1116.14 4266.76 1111.6 4272.03 1108.65C4277.31 1105.58 4283.73 1104.04 4291.3 1104.04H4298V1121.69H4288.46C4280.75 1121.69 4274.54 1124.1 4269.8 1128.92C4265.07 1133.59 4262.7 1140.28 4262.7 1148.97V1213.37H4243.83Z" fill="#0D1117"/>
</svg>
