<svg width="1988" height="1260" viewBox="0 0 1988 1260" fill="none" xmlns="http://www.w3.org/2000/svg">
<path d="M876.684 1251.49C772.073 1251.49 690.773 1223.07 632.782 1166.21C575.929 1108.22 547.502 1026.92 547.502 922.313V512.973H387.176V313.415H404.232C449.714 313.415 484.964 301.476 509.979 277.597C534.995 253.719 547.502 219.038 547.502 173.555V101.92H770.936V313.415H984.137V512.973H770.936V910.373C770.936 941.073 776.053 967.233 786.287 988.833C797.657 1010.44 814.713 1026.92 837.455 1038.29C861.333 1049.66 891.466 1055.35 927.852 1055.35C935.811 1055.35 944.908 1054.78 955.141 1053.64C966.512 1052.51 977.314 1051.37 987.548 1050.23V1241.26C971.629 1243.53 953.436 1245.81 932.969 1248.08C912.501 1250.36 893.74 1251.49 876.684 1251.49ZM1409.87 1259.48C1321.82 1259.48 1244.91 1238.73 1179.13 1197.24C1114.36 1154.73 1069.84 1097.56 1045.55 1025.71L1194.31 954.363C1215.56 1000.91 1244.91 1037.34 1282.36 1063.66C1320.81 1089.97 1363.31 1103.12 1409.87 1103.12C1446.3 1103.12 1475.14 1095.03 1496.39 1078.84C1517.64 1062.64 1528.27 1041.39 1528.27 1015.08C1528.27 998.893 1523.72 985.733 1514.61 975.613C1506.51 964.483 1494.87 955.373 1479.69 948.293C1465.53 940.193 1449.84 933.613 1432.64 928.553L1297.54 890.613C1227.71 870.373 1174.58 839.503 1138.15 798.013C1102.73 756.523 1085.02 707.433 1085.02 650.763C1085.02 600.163 1097.67 556.143 1122.97 518.703C1149.28 480.243 1185.2 450.392 1230.74 429.14C1277.3 407.888 1330.43 397.262 1390.13 397.262C1468.06 397.262 1536.87 415.984 1596.58 453.428C1656.29 490.873 1698.79 543.493 1724.09 611.303L1572.29 682.643C1558.12 645.203 1534.34 615.343 1500.95 593.083C1467.55 570.823 1430.11 559.683 1388.61 559.683C1355.22 559.683 1328.91 567.273 1309.68 582.453C1290.45 597.633 1280.84 617.373 1280.84 641.663C1280.84 656.843 1284.89 669.993 1292.98 681.123C1301.08 692.253 1312.21 701.363 1326.38 708.453C1341.56 715.533 1358.76 722.113 1377.99 728.183L1510.05 767.653C1577.86 787.893 1629.97 818.253 1666.41 858.733C1703.85 899.213 1722.57 948.793 1722.57 1007.49C1722.57 1057.08 1709.42 1101.1 1683.1 1139.55C1656.79 1177 1620.36 1206.35 1573.81 1227.6C1527.26 1248.85 1472.61 1259.48 1409.87 1259.48ZM1787.35 1241.26V1028.74H1987.72V1241.26H1787.35Z" fill="#F97316"/>
<path d="M392.286 0H153.502V221.728H392.286V0Z" fill="#F97316"/>
<path d="M392.286 1253.62H153.502V315.541H392.286V1253.62Z" fill="#F97316"/>
<path d="M153.504 0H0V144.976H153.504V0Z" fill="#F97316"/>
</svg>
